<?xml version="1.0" encoding="utf-8"?>
<!-- Generator: Adobe Illustrator 22.0.1, SVG Export Plug-In . SVG Version: 6.00 Build 0)  -->
<svg version="1.1" id="Layer_1" xmlns="http://www.w3.org/2000/svg" xmlns:xlink="http://www.w3.org/1999/xlink" x="0px" y="0px"
	 viewBox="0 0 1280 1024" width="353.553390593" height="282.842712475" style="enable-background:new 0 0 1280 1024;" xml:space="preserve">
<style type="text/css">
	.st0{fill:#FFFFFF;}
	.st1{fill:#02913F;stroke:#020202;stroke-width:4;}
	.st2{fill:#3A923E;stroke:#020202;stroke-width:4;}
	.st3{fill:#3A923E;stroke:#000000;stroke-width:3;}
</style>
<g>
	<path class="st0" d="M448.5,162.6c-34.2,0-66.2,0-98.8,0c-0.7,4.5-1.5,7.4-1.5,10.4c-0.1,97.4-0.6,194.8-0.1,292.1
		c0.3,66.5,22.9,125.5,63.3,177.9c4.4,5.7,8.5,11.6,15.6,21.3c-30.7,0-55.9,0-81.4,0c0,32.3,0,62.6,0,95.1
		c111.3,0,220.9,1.5,330.5-0.6c60.2-1.2,114-25.3,162.5-60.8c7.7-5.7,15.4-11.4,27.4-20.4c-6.1,44.6,8.8,73.6,50,89.2
		c9.4-19.6,36.8-26.8,36.9-56.3c0.1-77.3,1.7-154.6,3.2-231.9c1.3-67.4-13.8-130.2-50.2-187.4c-4.3-6.7-7.4-14-13.2-25.1
		c23,0,41.1,0,60.3,0c0-36.1,0-69.4,0-105.1c-97.9,0-193.7,1.4-289.4-0.4c-72.6-1.4-136.7,19.8-195,61.7c-5.2,3.8-10.9,6.9-20,12.7
		C448.5,208.3,448.5,186.2,448.5,162.6z"/>
	<path class="st1" d="M603.8,27.9c8.6,51.3-21,88.2-73.1,90.2c-13.1,0.5-26.7-3.6-39.2-1.2c-25.2,4.8-49.9,12.4-74.6,19.4
		c-6.2,1.8-11.8,5.8-24.3,12.2c6-24.1,8.8-42.3,15-59.1c8.3-22.3,27-30.2,50.1-29.4c44.4,1.6,88.1-1.4,128.2-23.2
		c4.6-2.5,8.8-5.9,13.2-8.8C600.7,27.9,602.3,27.9,603.8,27.9z"/>
	<path class="st2" d="M448.5,162.6c0,23.6,0,45.7,0,72.4c9.1-5.8,14.8-9,20-12.7c58.2-41.9,122.4-63.1,195-61.7
		c95.8,1.8,191.6,0.4,289.4,0.4c0,35.8,0,69.1,0,105.1c-19.1,0-37.3,0-60.3,0c5.8,11.1,9,18.5,13.2,25.1
		c36.5,57.2,51.5,120,50.2,187.4c-1.5,77.3-3,154.6-3.2,231.9c-0.1,29.5-27.5,36.7-36.9,56.3c-41.2-15.6-56.1-44.6-50-89.2
		c-12,8.9-19.7,14.7-27.4,20.4c-48.4,35.6-102.3,59.7-162.5,60.8c-109.6,2.2-219.2,0.6-330.5,0.6c0-32.5,0-62.8,0-95.1
		c25.5,0,50.7,0,81.4,0c-7.1-9.7-11.2-15.6-15.6-21.3c-40.3-52.5-63-111.4-63.3-177.9c-0.5-97.4,0-194.8,0.1-292.1
		c0-2.9,0.8-5.9,1.5-10.4C382.3,162.6,414.2,162.6,448.5,162.6z M854.6,463.8c-0.1-112-91.7-203.5-203.9-203.6
		c-112-0.1-204.3,91.5-204.5,203.2c-0.3,112.9,92.2,205.2,205.3,204.8C763.5,667.7,854.8,575.9,854.6,463.8z"/>
	<path d="M517.8,465c-13-11.7-24.3-21.8-34-30.5c35.3-35.6,69.3-69.8,103.7-104.5c9,10,19.1,21.3,30.7,34.4
		c-6.2,6.7-14.2,15.5-23.7,25.8c19.4,18,37.9,35.2,58.8,54.7c17-18.4,33.4-36.2,50.5-54.7c-9.7-10.2-18.1-18.9-27.9-29.2
		c10.9-12.7,21.3-24.8,33.4-39c31.2,29.5,61.3,57.9,92.7,87.5c-7.4,15.8-14.4,30.9-22.7,48.6c-12.2-10.4-22.9-19.6-34.7-29.6
		c-16.6,18-32.7,35.4-50,54.2c28.3,26.4,55.3,51.5,84,78.3c-12.4,13.8-24,26.7-37.1,41.2c-28.6-26.3-55.7-51.2-85.2-78.3
		c-26.9,28.8-53.4,57.3-81.5,87.4c-14-12.7-26.8-24.3-41.1-37.3c27.3-29.7,53.8-58.4,81.3-88.3c-20.5-19-39.6-36.7-60.4-56
		C542.5,441.4,531,452.4,517.8,465z"/>
	<path class="st0" d="M854.6,463.8c0.1,112.2-91.1,204-203.2,204.4c-113,0.4-205.6-91.9-205.3-204.8
		c0.3-111.7,92.5-203.3,204.5-203.2C762.9,260.3,854.5,351.7,854.6,463.8z M517.8,465c13.2-12.6,24.7-23.6,37-35.4
		c20.7,19.2,39.9,37,60.4,56c-27.5,29.9-53.9,58.6-81.3,88.3c14.2,12.9,27.1,24.6,41.1,37.3c28.1-30.1,54.6-58.5,81.5-87.4
		c29.5,27.1,56.6,52,85.2,78.3c13.1-14.5,24.7-27.4,37.1-41.2c-28.8-26.8-55.7-51.9-84-78.3c17.3-18.8,33.4-36.2,50-54.2
		c11.8,10.1,22.5,19.2,34.7,29.6c8.3-17.7,15.3-32.8,22.7-48.6c-31.4-29.6-61.5-58-92.7-87.5c-12.2,14.2-22.5,26.3-33.4,39
		c9.8,10.3,18.1,19,27.9,29.2c-17.1,18.6-33.5,36.3-50.5,54.7c-21-19.5-39.5-36.7-58.8-54.7c9.4-10.3,17.5-19.1,23.7-25.8
		c-11.7-13.1-21.8-24.4-30.7-34.4c-34.4,34.7-68.4,68.9-103.7,104.5C493.5,443.2,504.8,453.4,517.8,465z"/>
</g>
<g>
	<path class="st3" d="M343.3,869.3l-1.9-20.8h-30.4v99.9c5.4,0.4,12.3,1,17.5,1.9v20.4h-63.5v-20.4c5.2-0.8,12.1-1.2,17.3-1.9v-99.9
		h-30.6l-1.9,20.8h-19.8V825h133v44.3H343.3z"/>
	<path class="st3" d="M449.6,825c33.1,0,49.3,12.5,49.3,41.8v10.8c0,19.6-9.6,29.8-23.3,37.5c4.8,7.5,12.3,20.4,17.7,33.3
		c3.7,0.6,8.9,1,15.4,1.9v20.4h-46.2v-22.1c-4.8-13.9-8.5-22.5-12.5-28.7h-31.6v29.3c4.2,0.2,8.3,0.6,12.7,1v20.4h-57.6v-20.4
		c5.6-0.8,10.8-1.5,16.2-1.9V847.3c-4-0.4-9.6-0.8-16.6-1.9V825H449.6z M449.4,894.7c14.8,0,22.5-7.1,22.5-18.7v-7.3
		c0-12.9-7.5-20.2-22.5-20.2h-31v46.2H449.4z"/>
	<path class="st3" d="M631.1,867.3H613l-3.3-19.4h-49.5v37.2h38.7v24.6h-38.7v38.1h51l3.3-19.4h18.1v42.2H515.8v-20.4
		c7.1-0.8,12.1-1.2,15.8-1.9V847.3c-4.4-0.6-8.9-0.8-16.2-1.9V825h115.7V867.3z"/>
	<path class="st3" d="M724.7,825c32.9,0.2,47.4,13.5,47.4,43.1V880c0,28.1-14.8,41-47.2,41h-31.4v27.5c6,0.2,11.9,1,17.7,1.9v20.4
		h-62.6v-20.4c5.4-0.8,10.8-1.2,16.2-1.9V847.3c-4-0.4-9.6-0.8-16.6-1.9V825H724.7z M745.3,870c0-14.1-7.3-21.4-22.7-21.4h-29.1
		v48.7h29.1c15,0,22.7-7.3,22.7-21V870z"/>
	<path class="st3" d="M844,978h8.5c10.6,0,15.6,3.7,15.6,13.3v2.7c0,11.4-5.4,14.8-18.1,15c-5.6,0-15.4-1-22.9-2.7v-7.9h22.1
		c4,0,6-2.1,6-5.2v-0.8c0-3.5-1.5-5.2-6-5.2h-17.1l2.5-14.1c-30.6-1.9-44.7-18.5-45.2-52V877c0-35.8,17.7-54.3,53.3-54.3h8.9
		c15.2,0,31.4,1.7,52,7.7v40.8h-23.7l-3.3-22.5c-9.8-2.7-19.8-2.7-32.7-2.7c-16.9,0-25.8,9.8-25.8,28.7v48.7
		c0,17.3,9.2,25.8,25.8,25.8h10c13.5,0,22.1-5.6,27.3-17.1h23.7V954c-13.1,12.3-31.6,19.1-49.5,19.1h-11L844,978z"/>
	<path class="st3" d="M1057.2,948.4c6.5,0.2,12.5,1,18.5,1.9v20.4H1011v-20.4c4.8-0.8,9.4-1.2,14.1-1.7l-6.9-20.8h-48.1l-5.6,20.6
		c4.8,0.6,6.2,1,11.2,1.9v20.4h-58.1v-20.4c5.8-0.8,11.7-1.7,17.7-1.9L969,847.1c-3.7-0.4-8.3-0.8-15.4-1.7V825h62L1057.2,948.4z
		 M993.6,849l-17.7,54.5h36.2L994.2,849H993.6z"/>
</g>
</svg>
